<?xml version="1.0" encoding="UTF-8"?><svg id="_レイヤー_2" xmlns="http://www.w3.org/2000/svg" viewBox="0 0 102.05 34.02"><defs><style>.cls-1{fill:none;}.cls-1,.cls-2,.cls-3,.cls-4{stroke-width:0px;}.cls-2{fill:#231815;}.cls-3{fill:#eb6fa6;}.cls-4{fill:#1c287d;}</style></defs><g id="_レイヤー_1-2"><path class="cls-4" d="M5.11,14.94c-1.24,1.62-1.24,4.24,0,5.86l-3.59-2.55c-.27-.19-.27-.58,0-.77l3.59-2.55Z"/><path class="cls-3" d="M38.09,20.8c1.24-1.62,1.24-4.24,0-5.86l3.6,2.55c.26.18.26.57,0,.76l-3.6,2.55Z"/><path class="cls-4" d="M22.52,3.7c-.37-.16-.62-.52-.61-.95,0-.56.47-1.01,1.03-1,.03,0,.06,0,.08,0h0C14.99.92,7.77,6.52,6.49,14.39c0,.03-.01.07-.02.11,0,.02,0,.04,0,.05h0s0,.05,0,.08c0,.56.44,1.03,1,1.03.43,0,.79-.25.95-.62.09.46.49.81.98.82.43,0,.79-.25.95-.62.09.46.49.81.98.82.43,0,.79-.25.95-.62.09.46.49.81.98.82.43,0,.79-.25.95-.62.09.46.49.81.98.82.54,0,.99-.41,1.03-.95.64-2.56,3.07-4.33,5.77-4.04h0c-.51-.06-.91-.5-.9-1.02,0-.49.36-.89.82-.98-.37-.16-.62-.52-.61-.95,0-.49.36-.89.82-.98-.37-.16-.62-.52-.61-.95,0-.49.36-.89.82-.98-.37-.16-.62-.52-.61-.95,0-.49.36-.89.82-.98Z"/><path class="cls-4" d="M24.73,5.52c.05-.5-.31-.94-.81-1s-.94.31-1,.81c-.05.5.31.94.81,1,.5.05.94-.31,1-.81Z"/><path class="cls-4" d="M26.46,4.37c.5.05.94-.31,1-.81.05-.5-.31-.94-.81-1s-.94.31-1,.81c-.05.5.31.94.81,1Z"/><path class="cls-4" d="M22.83,7.57c-.04.42.26.8.68.84.42.04.8-.26.84-.68.04-.42-.26-.8-.68-.84-.42-.04-.8.26-.84.68Z"/><path class="cls-4" d="M25.97,6.43c.42.04.8-.26.84-.68.04-.42-.26-.8-.68-.84-.42-.04-.8.26-.84.68-.04.42.26.8.68.84Z"/><path class="cls-4" d="M28.63,5.16c.42.04.8-.26.84-.68.04-.42-.26-.8-.68-.84-.42-.04-.8.26-.84.68-.04.42.26.8.68.84Z"/><path class="cls-4" d="M23.46,8.97c-.34-.04-.65.21-.69.56s.21.65.56.69.65-.21.69-.56c.04-.34-.21-.65-.56-.69Z"/><path class="cls-4" d="M25.7,6.96c-.38-.04-.73.24-.77.62-.04.38.24.73.62.77.38.04.73-.24.77-.62.04-.38-.24-.73-.62-.77Z"/><path class="cls-4" d="M27.94,7.05c.38.04.73-.24.77-.62.04-.38-.24-.73-.62-.77-.38-.04-.73.24-.77.62-.04.38.24.73.62.77Z"/><path class="cls-4" d="M31.31,5.72c.04-.38-.24-.73-.62-.77s-.73.24-.77.62c-.04.38.24.73.62.77.38.04.73-.24.77-.62Z"/><path class="cls-4" d="M23.27,10.77c-.27-.03-.51.17-.54.43s.17.51.43.54c.27.03.51-.17.54-.43.03-.27-.17-.51-.43-.54Z"/><path class="cls-4" d="M27.46,7.56c-.31-.03-.58.19-.61.5s.19.58.5.61c.31.03.58-.19.61-.5.03-.31-.19-.58-.5-.61Z"/><path class="cls-4" d="M25.22,8.87c-.31-.03-.58.19-.61.5s.19.58.5.61c.31.03.58-.19.61-.5s-.19-.58-.5-.61Z"/><path class="cls-4" d="M26.87,9.19c-.23-.02-.44.14-.46.37s.14.44.37.46.44-.14.46-.37c.02-.23-.14-.44-.37-.46Z"/><path class="cls-4" d="M30.28,7.44c.03-.31-.19-.58-.5-.61-.31-.03-.58.19-.61.5s.19.58.5.61c.31.03.58-.19.61-.5Z"/><path class="cls-4" d="M32.34,6.53c-.31-.03-.58.19-.61.5s.19.58.5.61c.31.03.58-.19.61-.5s-.19-.58-.5-.61Z"/><path class="cls-4" d="M26.45,10.55c-.15-.02-.29.1-.31.25-.02.15.1.29.25.31.15.02.29-.1.31-.25.02-.15-.1-.29-.25-.31Z"/><path class="cls-4" d="M28.92,8.42c-.23-.02-.44.14-.46.37s.14.44.37.46.44-.14.46-.37-.14-.44-.37-.46Z"/><path class="cls-4" d="M24.77,10.51c-.23-.02-.44.14-.46.37s.14.44.37.46c.23.02.44-.14.46-.37.02-.23-.14-.44-.37-.46Z"/><path class="cls-4" d="M28.08,9.73c-.15-.02-.29.1-.31.25s.1.29.25.31c.15.02.29-.1.31-.25.02-.15-.1-.29-.25-.31Z"/><path class="cls-4" d="M31.2,8.1c-.23-.02-.44.14-.46.37-.02.23.14.44.37.46s.44-.14.46-.37c.02-.23-.14-.44-.37-.46Z"/><path class="cls-4" d="M33.71,8.22c-.23-.02-.44.14-.46.37s.14.44.37.46c.23.02.44-.14.46-.37s-.14-.44-.37-.46Z"/><path class="cls-4" d="M30.08,9.38c-.15-.02-.29.1-.31.25-.02.15.1.29.25.31.15.02.29-.1.31-.25.02-.15-.1-.29-.25-.31Z"/><path class="cls-4" d="M24.48,11.88c-.15-.02-.29.1-.31.25-.02.15.1.29.25.31.15.02.29-.1.31-.25.02-.15-.1-.29-.25-.31Z"/><path class="cls-4" d="M32.31,9.48c-.15-.02-.29.1-.31.25-.02.15.1.29.25.31.15.02.29-.1.31-.25.02-.15-.1-.29-.25-.31Z"/><path class="cls-4" d="M34.8,9.88c-.15-.02-.29.1-.31.25-.02.15.1.29.25.31.15.02.29-.1.31-.25.02-.15-.1-.29-.25-.31Z"/><circle class="cls-4" cx="24.09" cy="2.93" r="1.05"/><path class="cls-3" d="M20.44,29.95c.37.16.62.52.61.95,0,.56-.47,1.01-1.03,1-.03,0-.06,0-.08,0h0c8.03.85,15.25-4.75,16.53-12.62,0-.03.01-.07.02-.11,0-.02,0-.04,0-.05h0s0-.05,0-.08c0-.56-.44-1.03-1-1.03-.43,0-.79.25-.95.62-.09-.46-.49-.81-.98-.82-.43,0-.79.25-.95.62-.09-.46-.49-.81-.98-.82-.43,0-.79.25-.95.62-.09-.46-.49-.81-.98-.82-.43,0-.79.25-.95.62-.09-.46-.49-.81-.98-.82-.54,0-.99.41-1.03.95-.64,2.56-3.07,4.33-5.77,4.04h0c.51.06.91.5.9,1.02,0,.49-.36.89-.82.98.37.16.62.52.61.95,0,.49-.36.89-.82.98.37.16.62.52.61.95,0,.49-.36.89-.82.98.37.16.62.52.61.95,0,.49-.36.89-.82.98Z"/><circle class="cls-3" cx="18.82" cy="30.72" r="1.05"/><path class="cls-3" d="M18.23,28.13c-.05.5.31.94.81,1s.94-.31,1-.81c.05-.5-.31-.94-.81-1-.5-.05-.94.31-1,.81Z"/><path class="cls-3" d="M16.49,29.28c-.5-.05-.94.31-1,.81-.05.5.31.94.81,1s.94-.31,1-.81c.05-.5-.31-.94-.81-1Z"/><path class="cls-3" d="M20.13,26.08c.04-.42-.26-.8-.68-.84-.42-.04-.8.26-.84.68-.04.42.26.8.68.84.42.04.8-.26.84-.68Z"/><path class="cls-3" d="M16.99,27.23c-.42-.04-.8.26-.84.68-.04.42.26.8.68.84.42.04.8-.26.84-.68.04-.42-.26-.8-.68-.84Z"/><path class="cls-3" d="M14.33,28.49c-.42-.04-.8.26-.84.68-.04.42.26.8.68.84.42.04.8-.26.84-.68.04-.42-.26-.8-.68-.84Z"/><path class="cls-3" d="M19.5,24.68c.34.04.65-.21.69-.56s-.21-.65-.56-.69-.65.21-.69.56c-.04.34.21.65.56.69Z"/><path class="cls-3" d="M17.26,26.69c.38.04.73-.24.77-.62.04-.38-.24-.73-.62-.77-.38-.04-.73.24-.77.62-.04.38.24.73.62.77Z"/><path class="cls-3" d="M15.02,26.6c-.38-.04-.73.24-.77.62-.04.38.24.73.62.77.38.04.73-.24.77-.62.04-.38-.24-.73-.62-.77Z"/><path class="cls-3" d="M11.65,27.93c-.04.38.24.73.62.77s.73-.24.77-.62c.04-.38-.24-.73-.62-.77-.38-.04-.73.24-.77.62Z"/><path class="cls-3" d="M19.69,22.88c.27.03.51-.17.54-.43s-.17-.51-.43-.54c-.27-.03-.51.17-.54.43-.03.27.17.51.43.54Z"/><path class="cls-3" d="M15.5,26.09c.31.03.58-.19.61-.5s-.19-.58-.5-.61c-.31-.03-.58.19-.61.5-.03.31.19.58.5.61Z"/><path class="cls-3" d="M17.74,24.78c.31.03.58-.19.61-.5s-.19-.58-.5-.61c-.31-.03-.58.19-.61.5s.19.58.5.61Z"/><path class="cls-3" d="M16.09,24.47c.23.02.44-.14.46-.37s-.14-.44-.37-.46-.44.14-.46.37c-.02.23.14.44.37.46Z"/><path class="cls-3" d="M12.68,26.21c-.03.31.19.58.5.61.31.03.58-.19.61-.5s-.19-.58-.5-.61c-.31-.03-.58.19-.61.5Z"/><path class="cls-3" d="M10.62,27.12c.31.03.58-.19.61-.5s-.19-.58-.5-.61c-.31-.03-.58.19-.61.5s.19.58.5.61Z"/><path class="cls-3" d="M16.51,23.11c.15.02.29-.1.31-.25.02-.15-.1-.29-.25-.31-.15-.02-.29.1-.31.25-.02.15.1.29.25.31Z"/><path class="cls-3" d="M14.04,25.23c.23.02.44-.14.46-.37s-.14-.44-.37-.46-.44.14-.46.37.14.44.37.46Z"/><path class="cls-3" d="M18.19,23.14c.23.02.44-.14.46-.37s-.14-.44-.37-.46c-.23-.02-.44.14-.46.37-.02.23.14.44.37.46Z"/><path class="cls-3" d="M14.88,23.92c.15.02.29-.1.31-.25s-.1-.29-.25-.31c-.15-.02-.29.1-.31.25-.02.15.1.29.25.31Z"/><path class="cls-3" d="M11.76,25.55c.23.02.44-.14.46-.37.02-.23-.14-.44-.37-.46s-.44.14-.46.37c-.02.23.14.44.37.46Z"/><path class="cls-3" d="M9.25,25.43c.23.02.44-.14.46-.37s-.14-.44-.37-.46c-.23-.02-.44.14-.46.37s.14.44.37.46Z"/><path class="cls-3" d="M12.88,24.27c.15.02.29-.1.31-.25.02-.15-.1-.29-.25-.31-.15-.02-.29.1-.31.25-.02.15.1.29.25.31Z"/><path class="cls-3" d="M18.48,21.77c.15.02.29-.1.31-.25.02-.15-.1-.29-.25-.31-.15-.02-.29.1-.31.25-.02.15.1.29.25.31Z"/><path class="cls-3" d="M10.64,24.17c.15.02.29-.1.31-.25.02-.15-.1-.29-.25-.31-.15-.02-.29.1-.31.25-.02.15.1.29.25.31Z"/><path class="cls-3" d="M8.16,23.77c.15.02.29-.1.31-.25.02-.15-.1-.29-.25-.31-.15-.02-.29.1-.31.25-.02.15.1.29.25.31Z"/><path class="cls-2" d="M67.1,29.86c-.27,0-.45.19-.89.19s-.67-.24-.67-.64c0-.97.56-1.54.56-2.07,0-.25-.25-.48-.54-.48-.78,0-2.47,2.89-4.75,2.89-.51,0-.51-.48-.43-1.01.06-.39.12-.6.12-1.36,0-.7-.91-.79-1.5-.67-.75.15-2.46,1.02-2.46,1.99,0,0-.02.4.41.4.1,0,1.09-.75,1.58-.75.24,0,.43.06.43.25s-.34,1-.34,1.52c0,.89.48,1.36,1.34,1.46,2.27.28,3.53-1.33,3.66-1.33.02,0,.03,0,.03.53,0,.16.05.94,1.46.94,1.34,0,2.32-1.05,2.32-1.58,0-.18-.11-.29-.35-.29Z"/><path class="cls-2" d="M100.39,30.03c-.27,0-.45.19-.89.19s-.67-.24-.67-.64c0-.97.56-1.54.56-2.07,0-.25-.25-.48-.54-.48-.78,0-2.51,2.89-4.75,2.89-.57,0-.56-.5-.4-1.14.09-.38.14-.81.09-1.24-.06-.57-.39-.93-.8-.95-.35-.02-.45.18-.47.4-.14.06-.28.11-.46.11-1.13,0-.29-1-1.66-1s-2.98,2.54-3.18,2.54h-.02s-.05-.03-.05-.08c0-.41.3-1.51.3-1.95,0-.37-.21-.64-.96-.64-.58,0-1.46.26-2.03.54-.13-.51-.74-.85-2.03-.78-2.76.15-4.7,2.42-4.72,4.19-.19.1-.47.22-.92.24-.56.03-.68-.41-.68-.86,0-.33.06-.64.06-.92-.02-.59-.35-.8-.91-.8-1.54,0-2.55,1.26-2.69,1.26-.06,0-.08-.06-.08-.16,0-.13.03-.32.03-.51,0-.35-.1-.72-.68-.72-.67,0-1.46.76-1.83.76-.13,0-.18-.06-.18-.18,0-.24.21-.67.21-1.1,0-.22-.13-.57-1.08-.57-1.69,0-2.4.97-2.4,1.61,0,.3.16.53.48.53l.81-.18c.19,0,.33.11.33.54,0,1.16-.57,1.96-.57,2.29,0,.29.43.53.8.53,1.11,0,1.53-1.96,2.5-1.96.24,0,.3.1.3.22,0,.29-.03,1.02-.05,1.53,0,.22.25.38.61.38.8,0,1.5-2.28,2.61-2.28.19,0,.27.11.27.32,0,.8.05,1.85.94,1.85.59,0,1.65-.54,2.28-1.05.33.83,1.24,1.41,2.93,1.32,1.75-.1,3.7-1.28,3.74-2.34,0-.24-.19-.3-.51-.28-.59.03-.81.89-2.31.97-1.38.07-1.48-.46-1.48-.46,1.86-.34,3.55-1.5,4.09-2.53,0,0,.01,0,.02-.02.33-.49.64-.51,1-.42.38.1.47.31.47.55,0,.7-.86,3.41-.86,3.71,0,.4.64.54,1.29.54.75-.02.78-.46,1.13-.88.38-.65,1.67-2.55,2.4-2.55.32,0,.49.33.92.33.52,0,1.24-.22,1.79-.57-.19.8-.58,1.5-.58,2.2,0,.89.48,1.36,1.34,1.46,2.27.28,3.53-1.33,3.66-1.33.02,0,.03,0,.03.53,0,.16.05.94,1.46.94,1.34,0,2.32-1.05,2.32-1.58,0-.18-.11-.29-.35-.29ZM80.06,29.23c-.13,0-.11-.44-.11-.53.05-.86,1.2-1.66,1.85-1.7.22-.01.45.02.46.21.03.57-1.42,1.97-2.2,2.02Z"/><path class="cls-2" d="M55.11,28.32c-.61-.29-.95-.74-.95-1.21,0-1.06.93-2.4,2.05-2.62.27-.05.46.21.46.39,0,.53-.38,1.34-.95,1.73-.19.13-.41.4-.12.69.19.19.8.15,1.2-.11.9-.58,1.78-1.68,1.78-2.57,0-.48-.27-1.3-2.09-1.3s-4.42,1.66-4.42,3.96c0,.89.88,1.4,1.59,1.82.44.26.9.53.9.76,0,.48-1.32.72-1.89.72-.37,0-.42-.08-.47-.15-.05-.08-.14-.21-.37-.21-.29,0-.66.53-.66.85,0,1.14,1.34,1.14,1.84,1.14,1.26,0,3.8-.49,3.8-1.99,0-.89-.99-1.56-1.7-1.91Z"/><path class="cls-2" d="M49.39,25.81c-.49,0-.85.09-1.03.11.56-1.72,1.43-3.09,1.43-4.16,0-.48-.24-.88-.75-.88-.8,0-2.26,2.53-2.85,5.37-.46.08-.84.18-1.03.24-.35.13-.59.64-.59,1.07,0,.38.21.53.61.53.24,0,.49-.05.65-.06.05,0,.08,0,.13-.02-.02.21-.02.41-.02.62,0,.06,0,.11,0,.17,0,.04-.01.08-.01.14-.04.71-1.19,1.26-1.81,1.28-.78.03-1.17-.43-1.09-1.44.1-1.15.67-2.09.67-2.34,0-.14-.11-.29-.33-.29-.35,0-1.32.27-1.64.45-.26.39-.47,1.14-.6,1.88,0,0,0,0,0,0-.13.97-1.81,1.74-2.49,1.74-.35,0-.49-.19-.49-.53,0-.89,1.88-5.75,1.88-7.25,0-.7-.41-.89-.96-.89-1.48,0-4.24,3.22-4.98,4-.02.02-.05.03-.06.03s-.02-.03-.02-.08c0-.18,1.15-2.5,1.15-4.35,0-.68-.24-1.29-.99-1.29-1.62,0-3.95,2.73-5.29,5.01-.25.43-.57.52-.38,0,.28-.78.58-1.75.58-2.37,0-.49-.14-1.13-.64-1.23-.05-.02-.11-.02-.18-.02-.49,0-2.05.45-2.05,1.02,0,.16.64-.1.64.7,0,.94-1.03,5.38-2.13,8.42-.02.06-.03.13-.03.18,0,.16.13.27.48.27.21,0,.54-.05.92-.14,1.19-.32,1.58-.99,2.25-2.23.94-1.72,3.27-5.39,3.94-5.39.06,0,.1.05.1.13,0,1.51-2.11,6.84-2.11,7.3,0,.49.91.51,1.5.51.49,0,1.05-1.18,1.13-1.39.38-1.02,3.09-5.3,4.19-5.3.14,0,.21.11.21.25,0,.51-1.11,3.74-1.11,4.98s.72,1.64,1.59,1.64,2.34-.73,3.28-1.48c.21.87.97,1.23,1.77,1.21,1.3-.03,2.9-.73,3.39-1.49.37,1.2,1.12,1.87,2.01,1.87,1.21,0,2.4-.78,2.4-1.72,0-.25-.21-.51-.45-.51-.49,0-.83.61-1.64.61-.56,0-.63-1.16-.63-2.02,0-.38.02-.76.08-1.11.11-.08.54-.18,1.7-.18h1c.45,0,.53-.24.53-.57,0-.84-.94-1.02-1.82-1.02Z"/><path class="cls-2" d="M43.08,24.92c.92,0,1.66-.74,1.66-1.66s-.74-1.66-1.66-1.66-1.66.74-1.66,1.66.74,1.66,1.66,1.66Z"/><rect class="cls-1" width="102.05" height="34.02"/></g></svg>