<?xml version="1.0" encoding="UTF-8"?><svg id="_レイヤー_2" xmlns="http://www.w3.org/2000/svg" viewBox="0 0 29.57 29.57"><defs><style>.cls-1{fill:none;}.cls-1,.cls-2,.cls-3{stroke-width:0px;}.cls-2{fill:#eb6fa6;}.cls-3{fill:#1c287d;}</style></defs><g id="_レイヤー_1-2"><path class="cls-3" d="M3.16,13.45c-.87,1.14-.87,2.99,0,4.13l-2.53-1.79c-.19-.13-.19-.41,0-.54l2.53-1.79Z"/><path class="cls-2" d="M26.41,17.58c.87-1.14.87-2.99,0-4.13l2.54,1.8c.18.13.18.4,0,.53l-2.54,1.8Z"/><path class="cls-3" d="M15.44,5.53c-.26-.11-.44-.37-.43-.67,0-.39.33-.71.73-.7.02,0,.04,0,.06,0h0c-5.66-.6-10.75,3.35-11.65,8.9,0,.02,0,.05-.01.08,0,.01,0,.03,0,.04h0s0,.03,0,.05c0,.4.31.72.71.73.3,0,.56-.18.67-.44.06.33.35.57.69.58.3,0,.56-.18.67-.44.06.33.35.57.69.58.3,0,.56-.18.67-.44.06.33.35.57.69.58.3,0,.56-.18.67-.44.06.33.35.57.69.58.38,0,.7-.29.72-.67.45-1.8,2.16-3.05,4.07-2.85h0c-.36-.04-.64-.35-.63-.72,0-.34.25-.63.58-.69-.26-.11-.44-.37-.43-.67,0-.34.25-.63.58-.69-.26-.11-.44-.37-.43-.67,0-.34.25-.63.58-.69-.26-.11-.44-.37-.43-.67,0-.34.25-.63.58-.69Z"/><path class="cls-3" d="M16.99,6.82c.04-.35-.22-.67-.57-.7s-.67.22-.7.57c-.04.35.22.67.57.7.35.04.67-.22.7-.57Z"/><path class="cls-3" d="M18.21,6c.35.04.67-.22.7-.57.04-.35-.22-.67-.57-.7s-.67.22-.7.57c-.04.35.22.67.57.7Z"/><path class="cls-3" d="M15.65,8.26c-.03.3.18.56.48.59.3.03.56-.18.59-.48.03-.3-.18-.56-.48-.59-.3-.03-.56.18-.59.48Z"/><path class="cls-3" d="M17.86,7.45c.3.03.56-.18.59-.48.03-.3-.18-.56-.48-.59-.3-.03-.56.18-.59.48-.03.3.18.56.48.59Z"/><path class="cls-3" d="M19.74,6.56c.3.03.56-.18.59-.48.03-.3-.18-.56-.48-.59-.3-.03-.56.18-.59.48-.03.3.18.56.48.59Z"/><path class="cls-3" d="M16.09,9.24c-.24-.03-.46.15-.49.39s.15.46.39.49.46-.15.49-.39c.03-.24-.15-.46-.39-.49Z"/><path class="cls-3" d="M17.68,7.83c-.27-.03-.51.17-.54.44-.03.27.17.51.44.54.27.03.51-.17.54-.44.03-.27-.17-.51-.44-.54Z"/><path class="cls-3" d="M19.25,7.89c.27.03.51-.17.54-.44.03-.27-.17-.51-.44-.54-.27-.03-.51.17-.54.44-.03.27.17.51.44.54Z"/><path class="cls-3" d="M21.63,6.96c.03-.27-.17-.51-.44-.54s-.51.17-.54.44c-.03.27.17.51.44.54.27.03.51-.17.54-.44Z"/><path class="cls-3" d="M15.96,10.52c-.19-.02-.36.12-.38.31s.12.36.31.38c.19.02.36-.12.38-.31.02-.19-.12-.36-.31-.38Z"/><path class="cls-3" d="M18.92,8.26c-.22-.02-.41.13-.43.35s.13.41.35.43c.22.02.41-.13.43-.35.02-.22-.13-.41-.35-.43Z"/><path class="cls-3" d="M17.34,9.18c-.22-.02-.41.13-.43.35s.13.41.35.43c.22.02.41-.13.43-.35s-.13-.41-.35-.43Z"/><path class="cls-3" d="M18.5,9.4c-.16-.02-.31.1-.32.26s.1.31.26.32.31-.1.32-.26c.02-.16-.1-.31-.26-.32Z"/><path class="cls-3" d="M20.91,8.17c.02-.22-.13-.41-.35-.43-.22-.02-.41.13-.43.35s.13.41.35.43c.22.02.41-.13.43-.35Z"/><path class="cls-3" d="M22.36,7.53c-.22-.02-.41.13-.43.35s.13.41.35.43c.22.02.41-.13.43-.35s-.13-.41-.35-.43Z"/><path class="cls-3" d="M18.2,10.36c-.11-.01-.2.07-.22.18-.01.11.07.2.18.22.11.01.2-.07.22-.18.01-.11-.07-.2-.18-.22Z"/><path class="cls-3" d="M19.94,8.86c-.16-.02-.31.1-.32.26s.1.31.26.32.31-.1.32-.26-.1-.31-.26-.32Z"/><path class="cls-3" d="M17.02,10.33c-.16-.02-.31.1-.32.26s.1.31.26.32c.16.02.31-.1.32-.26.02-.16-.1-.31-.26-.32Z"/><path class="cls-3" d="M19.35,9.79c-.11-.01-.2.07-.22.18s.07.2.18.22c.11.01.2-.07.22-.18.01-.11-.07-.2-.18-.22Z"/><path class="cls-3" d="M21.55,8.63c-.16-.02-.31.1-.32.26-.02.16.1.31.26.32s.31-.1.32-.26c.02-.16-.1-.31-.26-.32Z"/><path class="cls-3" d="M23.32,8.72c-.16-.02-.31.1-.32.26s.1.31.26.32c.16.02.31-.1.32-.26s-.1-.31-.26-.32Z"/><path class="cls-3" d="M20.76,9.54c-.11-.01-.2.07-.22.18-.01.11.07.2.18.22.11.01.2-.07.22-.18.01-.11-.07-.2-.18-.22Z"/><path class="cls-3" d="M16.82,11.3c-.11-.01-.2.07-.22.18-.01.11.07.2.18.22.11.01.2-.07.22-.18.01-.11-.07-.2-.18-.22Z"/><path class="cls-3" d="M22.34,9.6c-.11-.01-.2.07-.22.18-.01.11.07.2.18.22.11.01.2-.07.22-.18.01-.11-.07-.2-.18-.22Z"/><path class="cls-3" d="M24.09,9.89c-.11-.01-.2.07-.22.18-.01.11.07.2.18.22.11.01.2-.07.22-.18.01-.11-.07-.2-.18-.22Z"/><circle class="cls-3" cx="16.54" cy="4.99" r=".74"/><path class="cls-2" d="M13.96,24.03c.26.11.44.37.43.67,0,.39-.33.71-.73.7-.02,0-.04,0-.06,0h0c5.66.6,10.75-3.35,11.65-8.9,0-.02,0-.05.01-.08,0-.01,0-.03,0-.04h0s0-.03,0-.05c0-.4-.31-.72-.71-.73-.3,0-.56.18-.67.44-.06-.33-.35-.57-.69-.58-.3,0-.56.18-.67.44-.06-.33-.35-.57-.69-.58-.3,0-.56.18-.67.44-.06-.33-.35-.57-.69-.58-.3,0-.56.18-.67.44-.06-.33-.35-.57-.69-.58-.38,0-.7.29-.72.67-.45,1.8-2.16,3.05-4.07,2.85h0c.36.04.64.35.63.72,0,.34-.25.63-.58.69.26.11.44.37.43.67,0,.34-.25.63-.58.69.26.11.44.37.43.67,0,.34-.25.63-.58.69.26.11.44.37.43.67,0,.34-.25.63-.58.69Z"/><circle class="cls-2" cx="12.83" cy="24.58" r=".74"/><path class="cls-2" d="M12.41,22.75c-.04.35.22.67.57.7s.67-.22.7-.57c.04-.35-.22-.67-.57-.7-.35-.04-.67.22-.7.57Z"/><path class="cls-2" d="M11.18,23.56c-.35-.04-.67.22-.7.57-.04.35.22.67.57.7s.67-.22.7-.57c.04-.35-.22-.67-.57-.7Z"/><path class="cls-2" d="M13.75,21.31c.03-.3-.18-.56-.48-.59-.3-.03-.56.18-.59.48-.03.3.18.56.48.59.3.03.56-.18.59-.48Z"/><path class="cls-2" d="M11.53,22.12c-.3-.03-.56.18-.59.48-.03.3.18.56.48.59.3.03.56-.18.59-.48.03-.3-.18-.56-.48-.59Z"/><path class="cls-2" d="M9.66,23.01c-.3-.03-.56.18-.59.48-.03.3.18.56.48.59.3.03.56-.18.59-.48.03-.3-.18-.56-.48-.59Z"/><path class="cls-2" d="M13.31,20.32c.24.03.46-.15.49-.39s-.15-.46-.39-.49-.46.15-.49.39c-.03.24.15.46.39.49Z"/><path class="cls-2" d="M11.72,21.74c.27.03.51-.17.54-.44.03-.27-.17-.51-.44-.54-.27-.03-.51.17-.54.44-.03.27.17.51.44.54Z"/><path class="cls-2" d="M10.15,21.67c-.27-.03-.51.17-.54.44-.03.27.17.51.44.54.27.03.51-.17.54-.44.03-.27-.17-.51-.44-.54Z"/><path class="cls-2" d="M7.77,22.61c-.03.27.17.51.44.54s.51-.17.54-.44c.03-.27-.17-.51-.44-.54-.27-.03-.51.17-.54.44Z"/><path class="cls-2" d="M13.44,19.05c.19.02.36-.12.38-.31s-.12-.36-.31-.38c-.19-.02-.36.12-.38.31-.02.19.12.36.31.38Z"/><path class="cls-2" d="M10.48,21.31c.22.02.41-.13.43-.35s-.13-.41-.35-.43c-.22-.02-.41.13-.43.35-.02.22.13.41.35.43Z"/><path class="cls-2" d="M12.06,20.39c.22.02.41-.13.43-.35s-.13-.41-.35-.43c-.22-.02-.41.13-.43.35s.13.41.35.43Z"/><path class="cls-2" d="M10.9,20.17c.16.02.31-.1.32-.26s-.1-.31-.26-.32-.31.1-.32.26c-.02.16.1.31.26.32Z"/><path class="cls-2" d="M8.49,21.4c-.02.22.13.41.35.43.22.02.41-.13.43-.35s-.13-.41-.35-.43c-.22-.02-.41.13-.43.35Z"/><path class="cls-2" d="M7.04,22.04c.22.02.41-.13.43-.35s-.13-.41-.35-.43c-.22-.02-.41.13-.43.35s.13.41.35.43Z"/><path class="cls-2" d="M11.2,19.21c.11.01.2-.07.22-.18.01-.11-.07-.2-.18-.22-.11-.01-.2.07-.22.18-.01.11.07.2.18.22Z"/><path class="cls-2" d="M9.46,20.71c.16.02.31-.1.32-.26s-.1-.31-.26-.32-.31.1-.32.26.1.31.26.32Z"/><path class="cls-2" d="M12.38,19.24c.16.02.31-.1.32-.26s-.1-.31-.26-.32c-.16-.02-.31.1-.32.26-.02.16.1.31.26.32Z"/><path class="cls-2" d="M10.05,19.78c.11.01.2-.07.22-.18s-.07-.2-.18-.22c-.11-.01-.2.07-.22.18-.01.11.07.2.18.22Z"/><path class="cls-2" d="M7.85,20.94c.16.02.31-.1.32-.26.02-.16-.1-.31-.26-.32s-.31.1-.32.26c-.02.16.1.31.26.32Z"/><path class="cls-2" d="M6.08,20.85c.16.02.31-.1.32-.26s-.1-.31-.26-.32c-.16-.02-.31.1-.32.26s.1.31.26.32Z"/><path class="cls-2" d="M8.64,20.03c.11.01.2-.07.22-.18.01-.11-.07-.2-.18-.22-.11-.01-.2.07-.22.18-.01.11.07.2.18.22Z"/><path class="cls-2" d="M12.58,18.27c.11.01.2-.07.22-.18.01-.11-.07-.2-.18-.22-.11-.01-.2.07-.22.18-.01.11.07.2.18.22Z"/><path class="cls-2" d="M7.06,19.96c.11.01.2-.07.22-.18.01-.11-.07-.2-.18-.22-.11-.01-.2.07-.22.18-.01.11.07.2.18.22Z"/><path class="cls-2" d="M5.31,19.68c.11.01.2-.07.22-.18.01-.11-.07-.2-.18-.22-.11-.01-.2.07-.22.18-.01.11.07.2.18.22Z"/><rect class="cls-1" width="29.57" height="29.57"/></g></svg>