<?xml version="1.0" encoding="UTF-8"?><svg id="_レイヤー_2" xmlns="http://www.w3.org/2000/svg" viewBox="0 0 56.69 39.69"><defs><style>.cls-1{fill:none;}.cls-1,.cls-2,.cls-3,.cls-4{stroke-width:0px;}.cls-2{fill:#231815;}.cls-3{fill:#eb6fa6;}.cls-4{fill:#1c287d;}</style></defs><g id="_レイヤー_1-2"><path class="cls-2" d="M31.54,36.85c-.2,0-.33.14-.65.14s-.49-.17-.49-.46c0-.71.41-1.13.41-1.51,0-.19-.19-.35-.39-.35-.57,0-1.8,2.11-3.46,2.11-.37,0-.37-.35-.31-.74.04-.28.09-.44.09-.99,0-.51-.67-.57-1.09-.49-.55.11-1.79.75-1.79,1.45,0,0-.01.29.3.29.07,0,.79-.55,1.15-.55.17,0,.31.05.31.19s-.25.73-.25,1.11c0,.65.35.99.98,1.07,1.65.2,2.57-.97,2.66-.97.01,0,.02,0,.02.38,0,.12.03.68,1.07.68.97,0,1.69-.77,1.69-1.15,0-.13-.08-.21-.26-.21Z"/><path class="cls-2" d="M55.8,36.97c-.2,0-.33.14-.65.14s-.49-.17-.49-.46c0-.71.41-1.13.41-1.51,0-.19-.19-.35-.39-.35-.57,0-1.83,2.11-3.46,2.11-.42,0-.41-.36-.29-.83.07-.28.1-.59.07-.9-.04-.42-.29-.68-.58-.69-.25-.02-.33.13-.34.29-.1.04-.2.08-.33.08-.82,0-.21-.73-1.21-.73s-2.17,1.85-2.32,1.85h-.01s-.03-.02-.03-.06c0-.3.22-1.1.22-1.42,0-.27-.15-.46-.7-.46-.42,0-1.07.19-1.48.4-.1-.37-.54-.62-1.48-.57-2.01.11-3.42,1.77-3.44,3.05-.14.08-.34.16-.67.17-.41.02-.5-.3-.5-.63,0-.24.05-.46.05-.67-.01-.43-.26-.58-.66-.58-1.13,0-1.86.92-1.96.92-.05,0-.06-.05-.06-.12,0-.09.02-.23.02-.37,0-.26-.07-.52-.5-.52-.49,0-1.07.56-1.33.56-.09,0-.13-.05-.13-.13,0-.17.15-.49.15-.8,0-.16-.09-.42-.79-.42-1.23,0-1.75.71-1.75,1.17,0,.22.12.38.35.38l.59-.13c.14,0,.24.08.24.39,0,.85-.42,1.43-.42,1.67,0,.21.31.38.58.38.81,0,1.11-1.43,1.82-1.43.17,0,.22.07.22.16,0,.21-.02.74-.03,1.12,0,.16.19.28.44.28.58,0,1.09-1.66,1.9-1.66.14,0,.2.08.2.23,0,.58.03,1.35.68,1.35.43,0,1.2-.39,1.66-.77.24.6.91,1.03,2.14.96,1.27-.07,2.7-.93,2.73-1.71,0-.17-.14-.22-.37-.2-.43.02-.59.65-1.68.71-1.01.05-1.08-.33-1.08-.33,1.36-.25,2.59-1.09,2.98-1.85,0,0,0,0,.01-.01.24-.36.47-.37.73-.3.28.07.34.23.34.4,0,.51-.63,2.49-.63,2.71,0,.29.46.39.94.39.55-.01.57-.34.82-.64.28-.48,1.22-1.86,1.75-1.86.23,0,.36.24.67.24.38,0,.9-.16,1.3-.42-.14.58-.42,1.09-.42,1.61,0,.65.35.99.98,1.06,1.65.2,2.57-.97,2.66-.97.01,0,.02,0,.02.38,0,.12.03.68,1.07.68.97,0,1.69-.77,1.69-1.15,0-.13-.08-.21-.26-.21ZM40.99,36.39c-.09,0-.08-.32-.08-.39.04-.62.87-1.21,1.35-1.24.16,0,.33.02.33.16.02.42-1.04,1.44-1.61,1.47Z"/><path class="cls-2" d="M22.81,35.73c-.44-.21-.69-.54-.69-.89,0-.78.68-1.75,1.49-1.91.19-.04.33.15.33.28,0,.38-.28.98-.69,1.26-.14.09-.3.29-.09.5.14.14.58.11.87-.08.66-.43,1.3-1.22,1.3-1.88,0-.35-.2-.94-1.52-.94s-3.22,1.21-3.22,2.88c0,.64.64,1.02,1.16,1.32.32.19.66.38.66.56,0,.35-.96.53-1.38.53-.27,0-.31-.06-.34-.11-.04-.06-.1-.15-.27-.15-.21,0-.48.39-.48.62,0,.83.97.83,1.34.83.92,0,2.77-.36,2.77-1.45,0-.65-.72-1.14-1.24-1.39Z"/><path class="cls-2" d="M18.64,33.9c-.36,0-.62.07-.75.08.41-1.25,1.04-2.25,1.04-3.03,0-.35-.17-.64-.55-.64-.58,0-1.65,1.85-2.08,3.91-.34.06-.61.13-.75.17-.26.09-.43.46-.43.78,0,.28.15.38.44.38.17,0,.36-.03.48-.05.03,0,.06,0,.09-.01-.01.15-.01.3-.01.45,0,.04,0,.08,0,.12,0,.03,0,.06,0,.1-.03.52-.87.92-1.32.94-.57.02-.86-.31-.79-1.05.07-.84.49-1.52.49-1.71,0-.1-.08-.21-.24-.21-.26,0-.96.2-1.2.33-.19.28-.34.83-.44,1.37,0,0,0,0,0,0-.1.71-1.32,1.27-1.82,1.27-.26,0-.36-.14-.36-.38,0-.65,1.37-4.19,1.37-5.28,0-.51-.3-.65-.7-.65-1.08,0-3.09,2.34-3.63,2.91-.01.01-.03.02-.05.02s-.01-.02-.01-.06c0-.13.84-1.82.84-3.17,0-.5-.17-.94-.72-.94-1.18,0-2.88,1.99-3.85,3.65-.18.31-.41.38-.28,0,.2-.57.42-1.27.42-1.72,0-.36-.1-.82-.46-.89-.03-.01-.08-.01-.13-.01-.36,0-1.5.33-1.5.74,0,.12.47-.07.47.51,0,.68-.75,3.92-1.55,6.14-.01.05-.02.09-.02.13,0,.12.09.2.35.2.15,0,.39-.03.67-.1.87-.23,1.15-.72,1.64-1.62.68-1.25,2.38-3.93,2.87-3.93.05,0,.07.03.07.09,0,1.1-1.54,4.98-1.54,5.32,0,.36.66.37,1.09.37.36,0,.77-.86.82-1.01.28-.74,2.25-3.86,3.05-3.86.1,0,.15.08.15.19,0,.37-.81,2.73-.81,3.63s.52,1.2,1.16,1.2,1.71-.53,2.39-1.08c.16.63.71.9,1.29.88.95-.02,2.12-.53,2.47-1.08.27.88.82,1.37,1.46,1.37.88,0,1.75-.57,1.75-1.25,0-.19-.15-.37-.32-.37-.36,0-.6.44-1.2.44-.41,0-.46-.84-.46-1.47,0-.28.01-.56.06-.81.08-.06.39-.13,1.24-.13h.73c.32,0,.38-.17.38-.42,0-.62-.68-.74-1.32-.74Z"/><path class="cls-2" d="M14.04,33.25c.67,0,1.21-.54,1.21-1.21s-.54-1.21-1.21-1.21-1.21.54-1.21,1.21.54,1.21,1.21,1.21Z"/><path class="cls-4" d="M13.25,13.16c-1.13,1.48-1.13,3.88,0,5.36l-3.29-2.33c-.24-.17-.24-.53,0-.7l3.29-2.33Z"/><path class="cls-3" d="M43.44,18.53c1.13-1.48,1.13-3.88,0-5.36l3.3,2.34c.24.17.24.52,0,.69l-3.3,2.34Z"/><path class="cls-4" d="M29.19,2.88c-.34-.14-.57-.48-.56-.87,0-.51.43-.92.94-.91.03,0,.05,0,.08,0h0c-7.35-.78-13.96,4.35-15.12,11.55,0,.03-.01.06-.02.1,0,.02,0,.03,0,.05h0s0,.05,0,.07c0,.51.4.94.92.95.39,0,.73-.23.87-.57.08.42.45.74.9.75.39,0,.73-.23.87-.57.08.42.45.74.9.75.39,0,.73-.23.87-.57.08.42.45.74.9.75.39,0,.73-.23.87-.57.08.42.45.74.9.75.5,0,.91-.38.94-.87.58-2.34,2.81-3.96,5.28-3.7h0c-.47-.06-.83-.45-.82-.94,0-.45.33-.81.75-.9-.34-.14-.57-.48-.56-.87,0-.45.33-.81.75-.9-.34-.14-.57-.48-.56-.87,0-.45.33-.81.75-.9-.34-.14-.57-.48-.56-.87,0-.45.33-.81.75-.9Z"/><path class="cls-4" d="M31.21,4.55c.05-.46-.28-.86-.74-.91s-.86.28-.91.74c-.05.46.28.86.74.91.46.05.86-.28.91-.74Z"/><path class="cls-4" d="M32.8,3.49c.46.05.86-.28.91-.74.05-.46-.28-.86-.74-.91s-.86.28-.91.74c-.05.46.28.86.74.91Z"/><path class="cls-4" d="M29.47,6.42c-.04.39.24.73.63.77.39.04.73-.24.77-.63.04-.39-.24-.73-.63-.77-.39-.04-.73.24-.77.63Z"/><path class="cls-4" d="M32.35,5.37c.39.04.73-.24.77-.63.04-.39-.24-.73-.63-.77-.39-.04-.73.24-.77.63-.04.39.24.73.63.77Z"/><path class="cls-4" d="M34.78,4.22c.39.04.73-.24.77-.63.04-.39-.24-.73-.63-.77-.39-.04-.73.24-.77.63-.04.39.24.73.63.77Z"/><path class="cls-4" d="M30.05,7.7c-.32-.03-.6.2-.63.51s.2.6.51.63.6-.2.63-.51c.03-.32-.2-.6-.51-.63Z"/><path class="cls-4" d="M32.1,5.86c-.35-.04-.67.22-.7.57-.04.35.22.67.57.7.35.04.67-.22.7-.57.04-.35-.22-.67-.57-.7Z"/><path class="cls-4" d="M34.15,5.95c.35.04.67-.22.7-.57.04-.35-.22-.67-.57-.7-.35-.04-.67.22-.7.57-.04.35.22.67.57.7Z"/><path class="cls-4" d="M37.23,4.73c.04-.35-.22-.67-.57-.7s-.67.22-.7.57c-.04.35.22.67.57.7.35.04.67-.22.7-.57Z"/><path class="cls-4" d="M29.87,9.35c-.25-.03-.47.15-.49.4s.15.47.4.49c.25.03.47-.15.49-.4.03-.25-.15-.47-.4-.49Z"/><path class="cls-4" d="M33.71,6.42c-.28-.03-.53.17-.56.45s.17.53.45.56c.28.03.53-.17.56-.45.03-.28-.17-.53-.45-.56Z"/><path class="cls-4" d="M31.66,7.61c-.28-.03-.53.17-.56.45s.17.53.45.56c.28.03.53-.17.56-.45s-.17-.53-.45-.56Z"/><path class="cls-4" d="M33.17,7.9c-.21-.02-.4.13-.42.34s.13.4.34.42.4-.13.42-.34c.02-.21-.13-.4-.34-.42Z"/><path class="cls-4" d="M36.29,6.3c.03-.28-.17-.53-.45-.56-.28-.03-.53.17-.56.45s.17.53.45.56c.28.03.53-.17.56-.45Z"/><path class="cls-4" d="M38.18,5.47c-.28-.03-.53.17-.56.45s.17.53.45.56c.28.03.53-.17.56-.45s-.17-.53-.45-.56Z"/><path class="cls-4" d="M32.78,9.14c-.14-.01-.27.09-.28.23-.01.14.09.27.23.28.14.01.27-.09.28-.23.01-.14-.09-.27-.23-.28Z"/><path class="cls-4" d="M35.04,7.2c-.21-.02-.4.13-.42.34s.13.4.34.42.4-.13.42-.34-.13-.4-.34-.42Z"/><path class="cls-4" d="M31.25,9.11c-.21-.02-.4.13-.42.34s.13.4.34.42c.21.02.4-.13.42-.34.02-.21-.13-.4-.34-.42Z"/><path class="cls-4" d="M34.27,8.4c-.14-.01-.27.09-.28.23s.09.27.23.28c.14.01.27-.09.28-.23.01-.14-.09-.27-.23-.28Z"/><path class="cls-4" d="M37.13,6.9c-.21-.02-.4.13-.42.34-.02.21.13.4.34.42s.4-.13.42-.34c.02-.21-.13-.4-.34-.42Z"/><path class="cls-4" d="M39.43,7.02c-.21-.02-.4.13-.42.34s.13.4.34.42c.21.02.4-.13.42-.34s-.13-.4-.34-.42Z"/><path class="cls-4" d="M36.11,8.08c-.14-.01-.27.09-.28.23-.01.14.09.27.23.28.14.01.27-.09.28-.23.01-.14-.09-.27-.23-.28Z"/><path class="cls-4" d="M30.99,10.37c-.14-.01-.27.09-.28.23-.01.14.09.27.23.28.14.01.27-.09.28-.23.01-.14-.09-.27-.23-.28Z"/><path class="cls-4" d="M38.15,8.17c-.14-.01-.27.09-.28.23-.01.14.09.27.23.28.14.01.27-.09.28-.23.01-.14-.09-.27-.23-.28Z"/><path class="cls-4" d="M40.43,8.53c-.14-.01-.27.09-.28.23-.01.14.09.27.23.28.14.01.27-.09.28-.23.01-.14-.09-.27-.23-.28Z"/><circle class="cls-4" cx="30.63" cy="2.17" r=".96"/><path class="cls-3" d="M27.28,26.9c.34.14.57.48.56.87,0,.51-.43.92-.94.91-.03,0-.05,0-.08,0h0c7.35.78,13.96-4.35,15.12-11.55,0-.03.01-.06.02-.1,0-.02,0-.03,0-.05h0s0-.05,0-.07c0-.51-.4-.94-.92-.95-.39,0-.73.23-.87.57-.08-.42-.45-.74-.9-.75-.39,0-.73.23-.87.57-.08-.42-.45-.74-.9-.75-.39,0-.73.23-.87.57-.08-.42-.45-.74-.9-.75-.39,0-.73.23-.87.57-.08-.42-.45-.74-.9-.75-.5,0-.91.38-.94.87-.58,2.34-2.81,3.96-5.28,3.7h0c.47.06.83.45.82.94,0,.45-.33.81-.75.9.34.14.57.48.56.87,0,.45-.33.81-.75.9.34.14.57.48.56.87,0,.45-.33.81-.75.9.34.14.57.48.56.87,0,.45-.33.81-.75.9Z"/><path class="cls-3" d="M25.26,25.24c-.05.46.28.86.74.91s.86-.28.91-.74c.05-.46-.28-.86-.74-.91-.46-.05-.86.28-.91.74Z"/><path class="cls-3" d="M23.67,26.29c-.46-.05-.86.28-.91.74-.05.46.28.86.74.91s.86-.28.91-.74c.05-.46-.28-.86-.74-.91Z"/><path class="cls-3" d="M27,23.36c.04-.39-.24-.73-.63-.77-.39-.04-.73.24-.77.63-.04.39.24.73.63.77.39.04.73-.24.77-.63Z"/><path class="cls-3" d="M24.13,24.41c-.39-.04-.73.24-.77.63-.04.39.24.73.63.77.39.04.73-.24.77-.63.04-.39-.24-.73-.63-.77Z"/><path class="cls-3" d="M21.69,25.57c-.39-.04-.73.24-.77.63-.04.39.24.73.63.77.39.04.73-.24.77-.63.04-.39-.24-.73-.63-.77Z"/><path class="cls-3" d="M26.43,22.08c.32.03.6-.2.63-.51s-.2-.6-.51-.63-.6.2-.63.51c-.03.32.2.6.51.63Z"/><path class="cls-3" d="M24.37,23.92c.35.04.67-.22.7-.57.04-.35-.22-.67-.57-.7-.35-.04-.67.22-.7.57-.04.35.22.67.57.7Z"/><path class="cls-3" d="M22.33,23.84c-.35-.04-.67.22-.7.57-.04.35.22.67.57.7.35.04.67-.22.7-.57.04-.35-.22-.67-.57-.7Z"/><path class="cls-3" d="M19.24,25.05c-.04.35.22.67.57.7s.67-.22.7-.57c.04-.35-.22-.67-.57-.7-.35-.04-.67.22-.7.57Z"/><path class="cls-3" d="M26.6,20.43c.25.03.47-.15.49-.4s-.15-.47-.4-.49c-.25-.03-.47.15-.49.4-.03.25.15.47.4.49Z"/><path class="cls-3" d="M22.76,23.37c.28.03.53-.17.56-.45s-.17-.53-.45-.56c-.28-.03-.53.17-.56.45-.03.28.17.53.45.56Z"/><path class="cls-3" d="M24.81,22.17c.28.03.53-.17.56-.45s-.17-.53-.45-.56c-.28-.03-.53.17-.56.45s.17.53.45.56Z"/><path class="cls-3" d="M23.3,21.88c.21.02.4-.13.42-.34s-.13-.4-.34-.42-.4.13-.42.34c-.02.21.13.4.34.42Z"/><path class="cls-3" d="M20.18,23.48c-.03.28.17.53.45.56.28.03.53-.17.56-.45s-.17-.53-.45-.56c-.28-.03-.53.17-.56.45Z"/><path class="cls-3" d="M18.29,24.31c.28.03.53-.17.56-.45s-.17-.53-.45-.56c-.28-.03-.53.17-.56.45s.17.53.45.56Z"/><path class="cls-3" d="M23.69,20.64c.14.01.27-.09.28-.23.01-.14-.09-.27-.23-.28-.14-.01-.27.09-.28.23-.01.14.09.27.23.28Z"/><path class="cls-3" d="M21.43,22.59c.21.02.4-.13.42-.34s-.13-.4-.34-.42-.4.13-.42.34.13.4.34.42Z"/><path class="cls-3" d="M25.23,20.67c.21.02.4-.13.42-.34s-.13-.4-.34-.42c-.21-.02-.4.13-.42.34-.02.21.13.4.34.42Z"/><path class="cls-3" d="M22.2,21.38c.14.01.27-.09.28-.23s-.09-.27-.23-.28c-.14-.01-.27.09-.28.23-.01.14.09.27.23.28Z"/><path class="cls-3" d="M19.34,22.88c.21.02.4-.13.42-.34.02-.21-.13-.4-.34-.42s-.4.13-.42.34c-.02.21.13.4.34.42Z"/><path class="cls-3" d="M17.04,22.77c.21.02.4-.13.42-.34s-.13-.4-.34-.42c-.21-.02-.4.13-.42.34s.13.4.34.42Z"/><path class="cls-3" d="M20.37,21.7c.14.01.27-.09.28-.23.01-.14-.09-.27-.23-.28-.14-.01-.27.09-.28.23-.01.14.09.27.23.28Z"/><path class="cls-3" d="M25.49,19.42c.14.01.27-.09.28-.23.01-.14-.09-.27-.23-.28-.14-.01-.27.09-.28.23-.01.14.09.27.23.28Z"/><path class="cls-3" d="M18.32,21.62c.14.01.27-.09.28-.23.01-.14-.09-.27-.23-.28-.14-.01-.27.09-.28.23-.01.14.09.27.23.28Z"/><path class="cls-3" d="M16.05,21.25c.14.01.27-.09.28-.23.01-.14-.09-.27-.23-.28-.14-.01-.27.09-.28.23-.01.14.09.27.23.28Z"/><rect class="cls-1" width="56.69" height="39.69"/><circle class="cls-3" cx="25.81" cy="27.61" r=".96"/></g></svg>