<?xml version="1.0" encoding="UTF-8"?><svg id="_レイヤー_2" xmlns="http://www.w3.org/2000/svg" viewBox="0 0 113.39 22.68"><defs><style>.cls-1{fill:none;}.cls-1,.cls-2,.cls-3,.cls-4{stroke-width:0px;}.cls-2{fill:#231815;}.cls-3{fill:#eb6fa6;}.cls-4{fill:#1c287d;}</style></defs><g id="_レイヤー_1-2"><path class="cls-4" d="M2.87,9.92c-.92,1.21-.92,3.18,0,4.39L.18,12.41c-.2-.14-.2-.44,0-.58l2.69-1.91Z"/><path class="cls-3" d="M27.57,14.31c.92-1.21.92-3.18,0-4.39l2.7,1.91c.2.14.2.43,0,.57l-2.7,1.91Z"/><path class="cls-4" d="M15.91,1.52c-.27-.12-.46-.39-.46-.71,0-.42.35-.75.77-.75.02,0,.04,0,.06,0h0C10.27-.57,4.87,3.62,3.91,9.51c0,.03-.01.05-.01.08,0,.01,0,.03,0,.04h0s0,.04,0,.06c0,.42.33.77.75.77.32,0,.59-.19.71-.46.07.35.37.61.74.61.32,0,.59-.19.71-.46.07.35.37.61.74.61.32,0,.59-.19.71-.46.07.35.37.61.74.61.32,0,.59-.19.71-.46.07.35.37.61.74.61.41,0,.74-.31.77-.71.48-1.92,2.3-3.24,4.32-3.03h0c-.38-.05-.68-.37-.67-.77,0-.36.27-.67.61-.73-.27-.12-.46-.39-.46-.71,0-.36.27-.67.61-.73-.27-.12-.46-.39-.46-.71,0-.36.27-.67.61-.73-.27-.12-.46-.39-.46-.71,0-.36.27-.67.61-.73Z"/><path class="cls-4" d="M17.57,2.88c.04-.37-.23-.71-.6-.75s-.71.23-.75.6c-.04.37.23.71.6.75.37.04.71-.23.75-.6Z"/><path class="cls-4" d="M18.87,2.02c.37.04.71-.23.75-.6.04-.37-.23-.71-.6-.75s-.71.23-.75.6c-.04.37.23.71.6.75Z"/><path class="cls-4" d="M16.14,4.41c-.03.32.2.6.51.63.32.03.6-.2.63-.51.03-.32-.2-.6-.51-.63-.32-.03-.6.2-.63.51Z"/><path class="cls-4" d="M18.49,3.55c.32.03.6-.2.63-.51.03-.32-.2-.6-.51-.63-.32-.03-.6.2-.63.51-.03.32.2.6.51.63Z"/><path class="cls-4" d="M20.48,2.61c.32.03.6-.2.63-.51.03-.32-.2-.6-.51-.63-.32-.03-.6.2-.63.51-.03.32.2.6.51.63Z"/><path class="cls-4" d="M16.61,5.46c-.26-.03-.49.16-.52.42s.16.49.42.52.49-.16.52-.42c.03-.26-.16-.49-.42-.52Z"/><path class="cls-4" d="M18.29,3.95c-.29-.03-.54.18-.57.46-.03.29.18.54.47.57.29.03.54-.18.57-.47.03-.29-.18-.54-.46-.57Z"/><path class="cls-4" d="M19.97,4.02c.29.03.54-.18.57-.46.03-.29-.18-.54-.46-.57-.29-.03-.54.18-.57.47-.03.29.18.54.47.57Z"/><path class="cls-4" d="M22.49,3.03c.03-.29-.18-.54-.47-.57s-.54.18-.57.47c-.03.29.18.54.46.57.29.03.54-.18.57-.46Z"/><path class="cls-4" d="M16.47,6.81c-.2-.02-.38.12-.4.33s.12.38.33.4c.2.02.38-.12.4-.33.02-.2-.12-.38-.33-.4Z"/><path class="cls-4" d="M19.61,4.41c-.23-.02-.44.14-.46.37s.14.44.37.46c.23.02.44-.14.46-.37.02-.23-.14-.44-.37-.46Z"/><path class="cls-4" d="M17.93,5.38c-.23-.02-.44.14-.46.37s.14.44.37.46c.23.02.44-.14.46-.37s-.14-.44-.37-.46Z"/><path class="cls-4" d="M19.17,5.62c-.17-.02-.33.11-.34.28s.11.33.28.34.33-.11.34-.28c.02-.17-.11-.33-.28-.34Z"/><path class="cls-4" d="M21.72,4.31c.02-.23-.14-.44-.37-.46-.23-.02-.44.14-.46.37s.14.44.37.46c.23.02.44-.14.46-.37Z"/><path class="cls-4" d="M23.27,3.63c-.23-.02-.44.14-.46.37s.14.44.37.46c.23.02.44-.14.46-.37s-.14-.44-.37-.46Z"/><path class="cls-4" d="M18.85,6.64c-.11-.01-.22.07-.23.19-.01.11.07.22.19.23.11.01.22-.07.23-.19.01-.11-.07-.22-.19-.23Z"/><path class="cls-4" d="M20.7,5.05c-.17-.02-.33.11-.34.28s.11.33.28.34.33-.11.34-.28-.11-.33-.28-.34Z"/><path class="cls-4" d="M17.59,6.61c-.17-.02-.33.11-.34.28s.11.33.28.34c.17.02.33-.11.34-.28.02-.17-.11-.33-.28-.34Z"/><path class="cls-4" d="M20.07,6.03c-.11-.01-.22.07-.23.19s.07.22.19.23c.11.01.22-.07.23-.19.01-.11-.07-.22-.19-.23Z"/><path class="cls-4" d="M22.41,4.8c-.17-.02-.33.11-.34.28-.02.17.11.33.28.34s.33-.11.34-.28c.02-.17-.11-.33-.28-.34Z"/><path class="cls-4" d="M24.29,4.9c-.17-.02-.33.11-.34.28s.11.33.28.34c.17.02.33-.11.34-.28s-.11-.33-.28-.34Z"/><path class="cls-4" d="M21.57,5.77c-.11-.01-.22.07-.23.19-.01.11.07.22.19.23.11.01.22-.07.23-.19.01-.11-.07-.22-.19-.23Z"/><path class="cls-4" d="M17.38,7.64c-.11-.01-.22.07-.23.19-.01.11.07.22.19.23.11.01.22-.07.23-.19.01-.11-.07-.22-.19-.23Z"/><path class="cls-4" d="M23.24,5.84c-.11-.01-.22.07-.23.19-.01.11.07.22.19.23.11.01.22-.07.23-.19.01-.11-.07-.22-.19-.23Z"/><path class="cls-4" d="M25.1,6.14c-.11-.01-.22.07-.23.19-.01.11.07.22.19.23.11.01.22-.07.23-.19.01-.11-.07-.22-.19-.23Z"/><circle class="cls-4" cx="17.09" cy=".94" r=".78"/><path class="cls-3" d="M14.35,21.16c.27.12.46.39.46.71,0,.42-.35.75-.77.75-.02,0-.04,0-.06,0h0c6.01.64,11.42-3.55,12.37-9.45,0-.03.01-.05.01-.08,0-.01,0-.03,0-.04h0s0-.04,0-.06c0-.42-.33-.77-.75-.77-.32,0-.59.19-.71.46-.07-.35-.37-.61-.74-.61-.32,0-.59.19-.71.46-.07-.35-.37-.61-.74-.61-.32,0-.59.19-.71.46-.07-.35-.37-.61-.74-.61-.32,0-.59.19-.71.46-.07-.35-.37-.61-.74-.61-.41,0-.74.31-.77.71-.48,1.92-2.3,3.24-4.32,3.03h0c.38.05.68.37.67.77,0,.36-.27.67-.61.73.27.12.46.39.46.71,0,.36-.27.67-.61.73.27.12.46.39.46.71,0,.36-.27.67-.61.73.27.12.46.39.46.71,0,.36-.27.67-.61.73Z"/><circle class="cls-3" cx="13.15" cy="21.74" r=".78"/><path class="cls-3" d="M12.7,19.8c-.04.37.23.71.6.75s.71-.23.75-.6c.04-.37-.23-.71-.6-.75-.37-.04-.71.23-.75.6Z"/><path class="cls-3" d="M11.4,20.66c-.37-.04-.71.23-.75.6-.04.37.23.71.6.75s.71-.23.75-.6c.04-.37-.23-.71-.6-.75Z"/><path class="cls-3" d="M14.12,18.27c.03-.32-.2-.6-.51-.63-.32-.03-.6.2-.63.51-.03.32.2.6.51.63.32.03.6-.2.63-.51Z"/><path class="cls-3" d="M11.77,19.12c-.32-.03-.6.2-.63.51-.03.32.2.6.51.63.32.03.6-.2.63-.51.03-.32-.2-.6-.51-.63Z"/><path class="cls-3" d="M9.78,20.07c-.32-.03-.6.2-.63.51-.03.32.2.6.51.63.32.03.6-.2.63-.51.03-.32-.2-.6-.51-.63Z"/><path class="cls-3" d="M13.65,17.22c.26.03.49-.16.52-.42s-.16-.49-.42-.52-.49.16-.52.42c-.03.26.16.49.42.52Z"/><path class="cls-3" d="M11.97,18.73c.29.03.54-.18.57-.46.03-.29-.18-.54-.47-.57-.29-.03-.54.18-.57.47-.03.29.18.54.46.57Z"/><path class="cls-3" d="M10.3,18.65c-.29-.03-.54.18-.57.46-.03.29.18.54.46.57.29.03.54-.18.57-.47.03-.29-.18-.54-.47-.57Z"/><path class="cls-3" d="M7.78,19.65c-.03.29.18.54.47.57s.54-.18.57-.47c.03-.29-.18-.54-.46-.57-.29-.03-.54.18-.57.46Z"/><path class="cls-3" d="M13.8,15.87c.2.02.38-.12.4-.33s-.12-.38-.33-.4c-.2-.02-.38.12-.4.33-.02.2.12.38.33.4Z"/><path class="cls-3" d="M10.65,18.27c.23.02.44-.14.46-.37s-.14-.44-.37-.46c-.23-.02-.44.14-.46.37-.02.23.14.44.37.46Z"/><path class="cls-3" d="M12.33,17.29c.23.02.44-.14.46-.37s-.14-.44-.37-.46c-.23-.02-.44.14-.46.37s.14.44.37.46Z"/><path class="cls-3" d="M11.1,17.06c.17.02.33-.11.34-.28s-.11-.33-.28-.34-.33.11-.34.28c-.02.17.11.33.28.34Z"/><path class="cls-3" d="M8.54,18.37c-.02.23.14.44.37.46.23.02.44-.14.46-.37s-.14-.44-.37-.46c-.23-.02-.44.14-.46.37Z"/><path class="cls-3" d="M7,19.04c.23.02.44-.14.46-.37s-.14-.44-.37-.46c-.23-.02-.44.14-.46.37s.14.44.37.46Z"/><path class="cls-3" d="M11.41,16.04c.11.01.22-.07.23-.19.01-.11-.07-.22-.19-.23-.11-.01-.22.07-.23.19-.01.11.07.22.19.23Z"/><path class="cls-3" d="M9.56,17.63c.17.02.33-.11.34-.28s-.11-.33-.28-.34-.33.11-.34.28.11.33.28.34Z"/><path class="cls-3" d="M12.67,16.07c.17.02.33-.11.34-.28s-.11-.33-.28-.34c-.17-.02-.33.11-.34.28-.02.17.11.33.28.34Z"/><path class="cls-3" d="M10.19,16.65c.11.01.22-.07.23-.19s-.07-.22-.19-.23c-.11-.01-.22.07-.23.19-.01.11.07.22.19.23Z"/><path class="cls-3" d="M7.86,17.87c.17.02.33-.11.34-.28.02-.17-.11-.33-.28-.34s-.33.11-.34.28c-.02.17.11.33.28.34Z"/><path class="cls-3" d="M5.98,17.78c.17.02.33-.11.34-.28s-.11-.33-.28-.34c-.17-.02-.33.11-.34.28s.11.33.28.34Z"/><path class="cls-3" d="M8.7,16.91c.11.01.22-.07.23-.19.01-.11-.07-.22-.19-.23-.11-.01-.22.07-.23.19-.01.11.07.22.19.23Z"/><path class="cls-3" d="M12.88,15.04c.11.01.22-.07.23-.19.01-.11-.07-.22-.19-.23-.11-.01-.22.07-.23.19-.01.11.07.22.19.23Z"/><path class="cls-3" d="M7.02,16.84c.11.01.22-.07.23-.19.01-.11-.07-.22-.19-.23-.11-.01-.22.07-.23.19-.01.11.07.22.19.23Z"/><path class="cls-3" d="M5.16,16.54c.11.01.22-.07.23-.19.01-.11-.07-.22-.19-.23-.11-.01-.22.07-.23.19-.01.11.07.22.19.23Z"/><path class="cls-2" d="M77.63,16.22c-.29,0-.47.2-.95.2s-.71-.25-.71-.68c0-1.03.59-1.64.59-2.2,0-.27-.27-.51-.58-.51-.83,0-2.63,3.07-5.05,3.07-.54,0-.54-.51-.45-1.08.06-.41.12-.63.12-1.45,0-.74-.97-.84-1.59-.71-.8.16-2.61,1.09-2.61,2.12,0,0-.02.42.44.42.1,0,1.15-.8,1.68-.8.25,0,.46.07.46.27s-.36,1.06-.36,1.62c0,.95.52,1.44,1.43,1.55,2.41.3,3.75-1.42,3.89-1.42.02,0,.03,0,.03.56,0,.17.05,1,1.56,1,1.42,0,2.47-1.12,2.47-1.68,0-.19-.12-.3-.37-.3Z"/><path class="cls-2" d="M113.01,16.4c-.29,0-.47.2-.95.2s-.71-.25-.71-.68c0-1.03.59-1.64.59-2.2,0-.27-.27-.51-.58-.51-.83,0-2.67,3.07-5.05,3.07-.61,0-.6-.53-.43-1.21.1-.4.15-.86.1-1.32-.06-.61-.42-.99-.85-1.01-.37-.02-.48.19-.5.43-.14.06-.3.11-.48.11-1.2,0-.3-1.07-1.76-1.07s-3.17,2.7-3.39,2.7h-.02s-.05-.03-.05-.08c0-.44.32-1.6.32-2.08,0-.39-.22-.68-1.02-.68-.62,0-1.56.28-2.16.58-.14-.54-.79-.91-2.16-.83-2.94.16-4.99,2.58-5.01,4.45-.2.11-.5.23-.98.25-.59.03-.73-.44-.73-.91,0-.36.07-.68.07-.98-.02-.63-.37-.85-.96-.85-1.64,0-2.71,1.34-2.86,1.34-.07,0-.08-.07-.08-.17,0-.14.03-.34.03-.54,0-.37-.1-.76-.73-.76-.71,0-1.56.81-1.95.81-.14,0-.19-.07-.19-.19,0-.25.22-.71.22-1.17,0-.24-.14-.61-1.15-.61-1.79,0-2.56,1.03-2.56,1.71,0,.32.17.56.51.56l.86-.19c.2,0,.36.12.36.58,0,1.24-.61,2.08-.61,2.44,0,.3.46.56.85.56,1.19,0,1.63-2.08,2.66-2.08.25,0,.32.1.32.24,0,.3-.03,1.08-.05,1.63,0,.24.27.41.64.41.85,0,1.59-2.42,2.78-2.42.2,0,.29.12.29.34,0,.85.05,1.96,1,1.96.63,0,1.75-.57,2.42-1.12.35.88,1.32,1.5,3.12,1.4,1.86-.1,3.93-1.36,3.98-2.49.01-.25-.2-.31-.54-.3-.63.03-.86.95-2.45,1.03-1.47.08-1.57-.49-1.57-.49,1.98-.36,3.78-1.59,4.34-2.69,0,0,.01,0,.02-.02.35-.53.68-.54,1.06-.44.41.1.5.33.5.59,0,.74-.92,3.63-.92,3.95,0,.42.68.58,1.37.58.8-.02.83-.49,1.2-.93.41-.69,1.78-2.71,2.56-2.71.34,0,.52.36.98.36.55,0,1.32-.24,1.9-.61-.21.85-.62,1.59-.61,2.34,0,.95.52,1.44,1.43,1.55,2.41.3,3.75-1.42,3.89-1.42.02,0,.03,0,.03.56,0,.17.05,1,1.56,1,1.42,0,2.47-1.12,2.47-1.68,0-.19-.12-.3-.37-.3ZM91.41,15.55c-.14,0-.12-.46-.11-.57.06-.91,1.28-1.77,1.97-1.8.24-.01.48.02.49.23.03.61-1.51,2.1-2.34,2.14Z"/><path class="cls-2" d="M64.88,14.59c-.65-.31-1.01-.78-1.01-1.29,0-1.13.99-2.55,2.18-2.78.28-.06.49.22.49.41,0,.56-.4,1.43-1.01,1.84-.2.14-.43.42-.13.73.2.21.85.16,1.27-.11.96-.62,1.9-1.78,1.9-2.74,0-.51-.29-1.38-2.22-1.38s-4.7,1.77-4.7,4.2c0,.94.94,1.49,1.69,1.93.47.28.96.56.96.81,0,.51-1.41.77-2.01.77-.39,0-.45-.08-.5-.16-.06-.08-.15-.22-.4-.22-.31,0-.7.56-.7.91,0,1.21,1.42,1.21,1.95,1.21,1.34,0,4.04-.52,4.04-2.11,0-.94-1.06-1.66-1.81-2.03Z"/><path class="cls-2" d="M58.8,11.92c-.52,0-.91.1-1.1.12.59-1.83,1.52-3.28,1.52-4.42,0-.51-.25-.93-.8-.93-.85,0-2.4,2.69-3.03,5.71-.49.08-.9.19-1.1.25-.37.14-.63.68-.63,1.13,0,.41.22.56.64.56.25,0,.52-.05.69-.07.05,0,.08,0,.14-.02-.02.22-.02.44-.02.66,0,.06,0,.12,0,.18,0,.04-.01.09-.01.15-.04.76-1.27,1.34-1.93,1.36-.83.03-1.25-.45-1.16-1.53.11-1.22.71-2.22.71-2.49,0-.15-.12-.3-.36-.3-.37,0-1.4.29-1.74.47-.27.42-.49,1.21-.64,2,0,0,0,0,0,0-.14,1.03-1.92,1.85-2.65,1.85-.37,0-.52-.2-.52-.56,0-.95,2-6.11,2-7.7,0-.74-.44-.95-1.02-.95-1.57,0-4.5,3.42-5.3,4.25-.02.02-.05.03-.07.03s-.02-.03-.02-.08c0-.19,1.22-2.66,1.22-4.62,0-.73-.25-1.37-1.05-1.37-1.73,0-4.19,2.91-5.62,5.33-.27.45-.6.56-.4,0,.3-.83.62-1.86.62-2.52,0-.52-.15-1.2-.68-1.3-.05-.02-.12-.02-.19-.02-.52,0-2.18.47-2.18,1.08,0,.17.68-.11.68.74,0,1-1.09,5.72-2.26,8.95-.02.07-.03.14-.03.19,0,.17.14.29.51.29.22,0,.58-.05.98-.15,1.27-.34,1.68-1.05,2.39-2.37,1-1.83,3.48-5.73,4.19-5.73.07,0,.1.05.1.14,0,1.61-2.24,7.27-2.24,7.76,0,.52.96.54,1.59.54.52,0,1.12-1.25,1.2-1.47.41-1.08,3.28-5.64,4.45-5.64.15,0,.22.12.22.27,0,.54-1.18,3.98-1.18,5.3s.76,1.74,1.69,1.74,2.49-.77,3.49-1.58c.23.92,1.03,1.31,1.88,1.29,1.38-.04,3.09-.78,3.6-1.58.4,1.28,1.19,1.99,2.14,1.99,1.29,0,2.56-.83,2.56-1.83,0-.27-.22-.54-.47-.54-.52,0-.88.64-1.74.64-.59,0-.67-1.23-.67-2.15,0-.41.02-.81.08-1.18.11-.09.57-.19,1.81-.19h1.07c.47,0,.56-.25.56-.61,0-.9-1-1.08-1.93-1.08Z"/><path class="cls-2" d="M52.09,10.97c.97,0,1.76-.79,1.76-1.76s-.79-1.76-1.76-1.76-1.76.79-1.76,1.76.79,1.76,1.76,1.76Z"/><rect class="cls-1" y="0" width="113.39" height="22.68"/></g></svg>